<?xml version="1.0" encoding="utf-8" standalone="no"?>
<!DOCTYPE svg PUBLIC "-//W3C//DTD SVG 1.1//EN"
  "http://www.w3.org/Graphics/SVG/1.1/DTD/svg11.dtd">
<!-- Created with matplotlib (http://matplotlib.org/) -->
<svg height="288pt" version="1.1" viewBox="0 0 432 288" width="432pt" xmlns="http://www.w3.org/2000/svg" xmlns:xlink="http://www.w3.org/1999/xlink">
 <defs>
  <style type="text/css">
*{stroke-linecap:butt;stroke-linejoin:round;}
  </style>
 </defs>
 <g id="figure_1">
  <g id="patch_1">
   <path d="M 0 288 
L 432 288 
L 432 0 
L 0 0 
z
" style="fill:#ffffff;"/>
  </g>
  <g id="axes_1">
   <g id="patch_2">
    <path d="M 54 252 
L 388.8 252 
L 388.8 34.56 
L 54 34.56 
z
" style="fill:#ffffff;"/>
   </g>
   <g id="matplotlib.axis_1">
    <g id="xtick_1">
     <g id="line2d_1">
      <defs>
       <path d="M 0 0 
L 0 3.5 
" id="m672c4b1fc9" style="stroke:#000000;stroke-width:0.8;"/>
      </defs>
      <g>
       <use style="stroke:#000000;stroke-width:0.8;" x="69.218182" xlink:href="#m672c4b1fc9" y="252"/>
      </g>
     </g>
     <g id="text_1">
      <!-- 0.0 -->
      <defs>
       <path d="M 31.78125 66.40625 
Q 24.171875 66.40625 20.328125 58.90625 
Q 16.5 51.421875 16.5 36.375 
Q 16.5 21.390625 20.328125 13.890625 
Q 24.171875 6.390625 31.78125 6.390625 
Q 39.453125 6.390625 43.28125 13.890625 
Q 47.125 21.390625 47.125 36.375 
Q 47.125 51.421875 43.28125 58.90625 
Q 39.453125 66.40625 31.78125 66.40625 
z
M 31.78125 74.21875 
Q 44.046875 74.21875 50.515625 64.515625 
Q 56.984375 54.828125 56.984375 36.375 
Q 56.984375 17.96875 50.515625 8.265625 
Q 44.046875 -1.421875 31.78125 -1.421875 
Q 19.53125 -1.421875 13.0625 8.265625 
Q 6.59375 17.96875 6.59375 36.375 
Q 6.59375 54.828125 13.0625 64.515625 
Q 19.53125 74.21875 31.78125 74.21875 
z
" id="DejaVuSans-30"/>
       <path d="M 10.6875 12.40625 
L 21 12.40625 
L 21 0 
L 10.6875 0 
z
" id="DejaVuSans-2e"/>
      </defs>
      <g transform="translate(61.266619 266.598437)scale(0.1 -0.1)">
       <use xlink:href="#DejaVuSans-30"/>
       <use x="63.623047" xlink:href="#DejaVuSans-2e"/>
       <use x="95.410156" xlink:href="#DejaVuSans-30"/>
      </g>
     </g>
    </g>
    <g id="xtick_2">
     <g id="line2d_2">
      <g>
       <use style="stroke:#000000;stroke-width:0.8;" x="130.151843" xlink:href="#m672c4b1fc9" y="252"/>
      </g>
     </g>
     <g id="text_2">
      <!-- 0.2 -->
      <defs>
       <path d="M 19.1875 8.296875 
L 53.609375 8.296875 
L 53.609375 0 
L 7.328125 0 
L 7.328125 8.296875 
Q 12.9375 14.109375 22.625 23.890625 
Q 32.328125 33.6875 34.8125 36.53125 
Q 39.546875 41.84375 41.421875 45.53125 
Q 43.3125 49.21875 43.3125 52.78125 
Q 43.3125 58.59375 39.234375 62.25 
Q 35.15625 65.921875 28.609375 65.921875 
Q 23.96875 65.921875 18.8125 64.3125 
Q 13.671875 62.703125 7.8125 59.421875 
L 7.8125 69.390625 
Q 13.765625 71.78125 18.9375 73 
Q 24.125 74.21875 28.421875 74.21875 
Q 39.75 74.21875 46.484375 68.546875 
Q 53.21875 62.890625 53.21875 53.421875 
Q 53.21875 48.921875 51.53125 44.890625 
Q 49.859375 40.875 45.40625 35.40625 
Q 44.1875 33.984375 37.640625 27.21875 
Q 31.109375 20.453125 19.1875 8.296875 
z
" id="DejaVuSans-32"/>
      </defs>
      <g transform="translate(122.20028 266.598437)scale(0.1 -0.1)">
       <use xlink:href="#DejaVuSans-30"/>
       <use x="63.623047" xlink:href="#DejaVuSans-2e"/>
       <use x="95.410156" xlink:href="#DejaVuSans-32"/>
      </g>
     </g>
    </g>
    <g id="xtick_3">
     <g id="line2d_3">
      <g>
       <use style="stroke:#000000;stroke-width:0.8;" x="191.085504" xlink:href="#m672c4b1fc9" y="252"/>
      </g>
     </g>
     <g id="text_3">
      <!-- 0.4 -->
      <defs>
       <path d="M 37.796875 64.3125 
L 12.890625 25.390625 
L 37.796875 25.390625 
z
M 35.203125 72.90625 
L 47.609375 72.90625 
L 47.609375 25.390625 
L 58.015625 25.390625 
L 58.015625 17.1875 
L 47.609375 17.1875 
L 47.609375 0 
L 37.796875 0 
L 37.796875 17.1875 
L 4.890625 17.1875 
L 4.890625 26.703125 
z
" id="DejaVuSans-34"/>
      </defs>
      <g transform="translate(183.133941 266.598437)scale(0.1 -0.1)">
       <use xlink:href="#DejaVuSans-30"/>
       <use x="63.623047" xlink:href="#DejaVuSans-2e"/>
       <use x="95.410156" xlink:href="#DejaVuSans-34"/>
      </g>
     </g>
    </g>
    <g id="xtick_4">
     <g id="line2d_4">
      <g>
       <use style="stroke:#000000;stroke-width:0.8;" x="252.019165" xlink:href="#m672c4b1fc9" y="252"/>
      </g>
     </g>
     <g id="text_4">
      <!-- 0.6 -->
      <defs>
       <path d="M 33.015625 40.375 
Q 26.375 40.375 22.484375 35.828125 
Q 18.609375 31.296875 18.609375 23.390625 
Q 18.609375 15.53125 22.484375 10.953125 
Q 26.375 6.390625 33.015625 6.390625 
Q 39.65625 6.390625 43.53125 10.953125 
Q 47.40625 15.53125 47.40625 23.390625 
Q 47.40625 31.296875 43.53125 35.828125 
Q 39.65625 40.375 33.015625 40.375 
z
M 52.59375 71.296875 
L 52.59375 62.3125 
Q 48.875 64.0625 45.09375 64.984375 
Q 41.3125 65.921875 37.59375 65.921875 
Q 27.828125 65.921875 22.671875 59.328125 
Q 17.53125 52.734375 16.796875 39.40625 
Q 19.671875 43.65625 24.015625 45.921875 
Q 28.375 48.1875 33.59375 48.1875 
Q 44.578125 48.1875 50.953125 41.515625 
Q 57.328125 34.859375 57.328125 23.390625 
Q 57.328125 12.15625 50.6875 5.359375 
Q 44.046875 -1.421875 33.015625 -1.421875 
Q 20.359375 -1.421875 13.671875 8.265625 
Q 6.984375 17.96875 6.984375 36.375 
Q 6.984375 53.65625 15.1875 63.9375 
Q 23.390625 74.21875 37.203125 74.21875 
Q 40.921875 74.21875 44.703125 73.484375 
Q 48.484375 72.75 52.59375 71.296875 
z
" id="DejaVuSans-36"/>
      </defs>
      <g transform="translate(244.067602 266.598437)scale(0.1 -0.1)">
       <use xlink:href="#DejaVuSans-30"/>
       <use x="63.623047" xlink:href="#DejaVuSans-2e"/>
       <use x="95.410156" xlink:href="#DejaVuSans-36"/>
      </g>
     </g>
    </g>
    <g id="xtick_5">
     <g id="line2d_5">
      <g>
       <use style="stroke:#000000;stroke-width:0.8;" x="312.952826" xlink:href="#m672c4b1fc9" y="252"/>
      </g>
     </g>
     <g id="text_5">
      <!-- 0.8 -->
      <defs>
       <path d="M 31.78125 34.625 
Q 24.75 34.625 20.71875 30.859375 
Q 16.703125 27.09375 16.703125 20.515625 
Q 16.703125 13.921875 20.71875 10.15625 
Q 24.75 6.390625 31.78125 6.390625 
Q 38.8125 6.390625 42.859375 10.171875 
Q 46.921875 13.96875 46.921875 20.515625 
Q 46.921875 27.09375 42.890625 30.859375 
Q 38.875 34.625 31.78125 34.625 
z
M 21.921875 38.8125 
Q 15.578125 40.375 12.03125 44.71875 
Q 8.5 49.078125 8.5 55.328125 
Q 8.5 64.0625 14.71875 69.140625 
Q 20.953125 74.21875 31.78125 74.21875 
Q 42.671875 74.21875 48.875 69.140625 
Q 55.078125 64.0625 55.078125 55.328125 
Q 55.078125 49.078125 51.53125 44.71875 
Q 48 40.375 41.703125 38.8125 
Q 48.828125 37.15625 52.796875 32.3125 
Q 56.78125 27.484375 56.78125 20.515625 
Q 56.78125 9.90625 50.3125 4.234375 
Q 43.84375 -1.421875 31.78125 -1.421875 
Q 19.734375 -1.421875 13.25 4.234375 
Q 6.78125 9.90625 6.78125 20.515625 
Q 6.78125 27.484375 10.78125 32.3125 
Q 14.796875 37.15625 21.921875 38.8125 
z
M 18.3125 54.390625 
Q 18.3125 48.734375 21.84375 45.5625 
Q 25.390625 42.390625 31.78125 42.390625 
Q 38.140625 42.390625 41.71875 45.5625 
Q 45.3125 48.734375 45.3125 54.390625 
Q 45.3125 60.0625 41.71875 63.234375 
Q 38.140625 66.40625 31.78125 66.40625 
Q 25.390625 66.40625 21.84375 63.234375 
Q 18.3125 60.0625 18.3125 54.390625 
z
" id="DejaVuSans-38"/>
      </defs>
      <g transform="translate(305.001263 266.598437)scale(0.1 -0.1)">
       <use xlink:href="#DejaVuSans-30"/>
       <use x="63.623047" xlink:href="#DejaVuSans-2e"/>
       <use x="95.410156" xlink:href="#DejaVuSans-38"/>
      </g>
     </g>
    </g>
    <g id="xtick_6">
     <g id="line2d_6">
      <g>
       <use style="stroke:#000000;stroke-width:0.8;" x="373.886486" xlink:href="#m672c4b1fc9" y="252"/>
      </g>
     </g>
     <g id="text_6">
      <!-- 1.0 -->
      <defs>
       <path d="M 12.40625 8.296875 
L 28.515625 8.296875 
L 28.515625 63.921875 
L 10.984375 60.40625 
L 10.984375 69.390625 
L 28.421875 72.90625 
L 38.28125 72.90625 
L 38.28125 8.296875 
L 54.390625 8.296875 
L 54.390625 0 
L 12.40625 0 
z
" id="DejaVuSans-31"/>
      </defs>
      <g transform="translate(365.934924 266.598437)scale(0.1 -0.1)">
       <use xlink:href="#DejaVuSans-31"/>
       <use x="63.623047" xlink:href="#DejaVuSans-2e"/>
       <use x="95.410156" xlink:href="#DejaVuSans-30"/>
      </g>
     </g>
    </g>
    <g id="text_7">
     <!-- tiempo [segundos] -->
     <defs>
      <path d="M 18.3125 70.21875 
L 18.3125 54.6875 
L 36.8125 54.6875 
L 36.8125 47.703125 
L 18.3125 47.703125 
L 18.3125 18.015625 
Q 18.3125 11.328125 20.140625 9.421875 
Q 21.96875 7.515625 27.59375 7.515625 
L 36.8125 7.515625 
L 36.8125 0 
L 27.59375 0 
Q 17.1875 0 13.234375 3.875 
Q 9.28125 7.765625 9.28125 18.015625 
L 9.28125 47.703125 
L 2.6875 47.703125 
L 2.6875 54.6875 
L 9.28125 54.6875 
L 9.28125 70.21875 
z
" id="DejaVuSans-74"/>
      <path d="M 9.421875 54.6875 
L 18.40625 54.6875 
L 18.40625 0 
L 9.421875 0 
z
M 9.421875 75.984375 
L 18.40625 75.984375 
L 18.40625 64.59375 
L 9.421875 64.59375 
z
" id="DejaVuSans-69"/>
      <path d="M 56.203125 29.59375 
L 56.203125 25.203125 
L 14.890625 25.203125 
Q 15.484375 15.921875 20.484375 11.0625 
Q 25.484375 6.203125 34.421875 6.203125 
Q 39.59375 6.203125 44.453125 7.46875 
Q 49.3125 8.734375 54.109375 11.28125 
L 54.109375 2.78125 
Q 49.265625 0.734375 44.1875 -0.34375 
Q 39.109375 -1.421875 33.890625 -1.421875 
Q 20.796875 -1.421875 13.15625 6.1875 
Q 5.515625 13.8125 5.515625 26.8125 
Q 5.515625 40.234375 12.765625 48.109375 
Q 20.015625 56 32.328125 56 
Q 43.359375 56 49.78125 48.890625 
Q 56.203125 41.796875 56.203125 29.59375 
z
M 47.21875 32.234375 
Q 47.125 39.59375 43.09375 43.984375 
Q 39.0625 48.390625 32.421875 48.390625 
Q 24.90625 48.390625 20.390625 44.140625 
Q 15.875 39.890625 15.1875 32.171875 
z
" id="DejaVuSans-65"/>
      <path d="M 52 44.1875 
Q 55.375 50.25 60.0625 53.125 
Q 64.75 56 71.09375 56 
Q 79.640625 56 84.28125 50.015625 
Q 88.921875 44.046875 88.921875 33.015625 
L 88.921875 0 
L 79.890625 0 
L 79.890625 32.71875 
Q 79.890625 40.578125 77.09375 44.375 
Q 74.3125 48.1875 68.609375 48.1875 
Q 61.625 48.1875 57.5625 43.546875 
Q 53.515625 38.921875 53.515625 30.90625 
L 53.515625 0 
L 44.484375 0 
L 44.484375 32.71875 
Q 44.484375 40.625 41.703125 44.40625 
Q 38.921875 48.1875 33.109375 48.1875 
Q 26.21875 48.1875 22.15625 43.53125 
Q 18.109375 38.875 18.109375 30.90625 
L 18.109375 0 
L 9.078125 0 
L 9.078125 54.6875 
L 18.109375 54.6875 
L 18.109375 46.1875 
Q 21.1875 51.21875 25.484375 53.609375 
Q 29.78125 56 35.6875 56 
Q 41.65625 56 45.828125 52.96875 
Q 50 49.953125 52 44.1875 
z
" id="DejaVuSans-6d"/>
      <path d="M 18.109375 8.203125 
L 18.109375 -20.796875 
L 9.078125 -20.796875 
L 9.078125 54.6875 
L 18.109375 54.6875 
L 18.109375 46.390625 
Q 20.953125 51.265625 25.265625 53.625 
Q 29.59375 56 35.59375 56 
Q 45.5625 56 51.78125 48.09375 
Q 58.015625 40.1875 58.015625 27.296875 
Q 58.015625 14.40625 51.78125 6.484375 
Q 45.5625 -1.421875 35.59375 -1.421875 
Q 29.59375 -1.421875 25.265625 0.953125 
Q 20.953125 3.328125 18.109375 8.203125 
z
M 48.6875 27.296875 
Q 48.6875 37.203125 44.609375 42.84375 
Q 40.53125 48.484375 33.40625 48.484375 
Q 26.265625 48.484375 22.1875 42.84375 
Q 18.109375 37.203125 18.109375 27.296875 
Q 18.109375 17.390625 22.1875 11.75 
Q 26.265625 6.109375 33.40625 6.109375 
Q 40.53125 6.109375 44.609375 11.75 
Q 48.6875 17.390625 48.6875 27.296875 
z
" id="DejaVuSans-70"/>
      <path d="M 30.609375 48.390625 
Q 23.390625 48.390625 19.1875 42.75 
Q 14.984375 37.109375 14.984375 27.296875 
Q 14.984375 17.484375 19.15625 11.84375 
Q 23.34375 6.203125 30.609375 6.203125 
Q 37.796875 6.203125 41.984375 11.859375 
Q 46.1875 17.53125 46.1875 27.296875 
Q 46.1875 37.015625 41.984375 42.703125 
Q 37.796875 48.390625 30.609375 48.390625 
z
M 30.609375 56 
Q 42.328125 56 49.015625 48.375 
Q 55.71875 40.765625 55.71875 27.296875 
Q 55.71875 13.875 49.015625 6.21875 
Q 42.328125 -1.421875 30.609375 -1.421875 
Q 18.84375 -1.421875 12.171875 6.21875 
Q 5.515625 13.875 5.515625 27.296875 
Q 5.515625 40.765625 12.171875 48.375 
Q 18.84375 56 30.609375 56 
z
" id="DejaVuSans-6f"/>
      <path id="DejaVuSans-20"/>
      <path d="M 8.59375 75.984375 
L 29.296875 75.984375 
L 29.296875 69 
L 17.578125 69 
L 17.578125 -6.203125 
L 29.296875 -6.203125 
L 29.296875 -13.1875 
L 8.59375 -13.1875 
z
" id="DejaVuSans-5b"/>
      <path d="M 44.28125 53.078125 
L 44.28125 44.578125 
Q 40.484375 46.53125 36.375 47.5 
Q 32.28125 48.484375 27.875 48.484375 
Q 21.1875 48.484375 17.84375 46.4375 
Q 14.5 44.390625 14.5 40.28125 
Q 14.5 37.15625 16.890625 35.375 
Q 19.28125 33.59375 26.515625 31.984375 
L 29.59375 31.296875 
Q 39.15625 29.25 43.1875 25.515625 
Q 47.21875 21.78125 47.21875 15.09375 
Q 47.21875 7.46875 41.1875 3.015625 
Q 35.15625 -1.421875 24.609375 -1.421875 
Q 20.21875 -1.421875 15.453125 -0.5625 
Q 10.6875 0.296875 5.421875 2 
L 5.421875 11.28125 
Q 10.40625 8.6875 15.234375 7.390625 
Q 20.0625 6.109375 24.8125 6.109375 
Q 31.15625 6.109375 34.5625 8.28125 
Q 37.984375 10.453125 37.984375 14.40625 
Q 37.984375 18.0625 35.515625 20.015625 
Q 33.0625 21.96875 24.703125 23.78125 
L 21.578125 24.515625 
Q 13.234375 26.265625 9.515625 29.90625 
Q 5.8125 33.546875 5.8125 39.890625 
Q 5.8125 47.609375 11.28125 51.796875 
Q 16.75 56 26.8125 56 
Q 31.78125 56 36.171875 55.265625 
Q 40.578125 54.546875 44.28125 53.078125 
z
" id="DejaVuSans-73"/>
      <path d="M 45.40625 27.984375 
Q 45.40625 37.75 41.375 43.109375 
Q 37.359375 48.484375 30.078125 48.484375 
Q 22.859375 48.484375 18.828125 43.109375 
Q 14.796875 37.75 14.796875 27.984375 
Q 14.796875 18.265625 18.828125 12.890625 
Q 22.859375 7.515625 30.078125 7.515625 
Q 37.359375 7.515625 41.375 12.890625 
Q 45.40625 18.265625 45.40625 27.984375 
z
M 54.390625 6.78125 
Q 54.390625 -7.171875 48.1875 -13.984375 
Q 42 -20.796875 29.203125 -20.796875 
Q 24.46875 -20.796875 20.265625 -20.09375 
Q 16.0625 -19.390625 12.109375 -17.921875 
L 12.109375 -9.1875 
Q 16.0625 -11.328125 19.921875 -12.34375 
Q 23.78125 -13.375 27.78125 -13.375 
Q 36.625 -13.375 41.015625 -8.765625 
Q 45.40625 -4.15625 45.40625 5.171875 
L 45.40625 9.625 
Q 42.625 4.78125 38.28125 2.390625 
Q 33.9375 0 27.875 0 
Q 17.828125 0 11.671875 7.65625 
Q 5.515625 15.328125 5.515625 27.984375 
Q 5.515625 40.671875 11.671875 48.328125 
Q 17.828125 56 27.875 56 
Q 33.9375 56 38.28125 53.609375 
Q 42.625 51.21875 45.40625 46.390625 
L 45.40625 54.6875 
L 54.390625 54.6875 
z
" id="DejaVuSans-67"/>
      <path d="M 8.5 21.578125 
L 8.5 54.6875 
L 17.484375 54.6875 
L 17.484375 21.921875 
Q 17.484375 14.15625 20.5 10.265625 
Q 23.53125 6.390625 29.59375 6.390625 
Q 36.859375 6.390625 41.078125 11.03125 
Q 45.3125 15.671875 45.3125 23.6875 
L 45.3125 54.6875 
L 54.296875 54.6875 
L 54.296875 0 
L 45.3125 0 
L 45.3125 8.40625 
Q 42.046875 3.421875 37.71875 1 
Q 33.40625 -1.421875 27.6875 -1.421875 
Q 18.265625 -1.421875 13.375 4.4375 
Q 8.5 10.296875 8.5 21.578125 
z
M 31.109375 56 
z
" id="DejaVuSans-75"/>
      <path d="M 54.890625 33.015625 
L 54.890625 0 
L 45.90625 0 
L 45.90625 32.71875 
Q 45.90625 40.484375 42.875 44.328125 
Q 39.84375 48.1875 33.796875 48.1875 
Q 26.515625 48.1875 22.3125 43.546875 
Q 18.109375 38.921875 18.109375 30.90625 
L 18.109375 0 
L 9.078125 0 
L 9.078125 54.6875 
L 18.109375 54.6875 
L 18.109375 46.1875 
Q 21.34375 51.125 25.703125 53.5625 
Q 30.078125 56 35.796875 56 
Q 45.21875 56 50.046875 50.171875 
Q 54.890625 44.34375 54.890625 33.015625 
z
" id="DejaVuSans-6e"/>
      <path d="M 45.40625 46.390625 
L 45.40625 75.984375 
L 54.390625 75.984375 
L 54.390625 0 
L 45.40625 0 
L 45.40625 8.203125 
Q 42.578125 3.328125 38.25 0.953125 
Q 33.9375 -1.421875 27.875 -1.421875 
Q 17.96875 -1.421875 11.734375 6.484375 
Q 5.515625 14.40625 5.515625 27.296875 
Q 5.515625 40.1875 11.734375 48.09375 
Q 17.96875 56 27.875 56 
Q 33.9375 56 38.25 53.625 
Q 42.578125 51.265625 45.40625 46.390625 
z
M 14.796875 27.296875 
Q 14.796875 17.390625 18.875 11.75 
Q 22.953125 6.109375 30.078125 6.109375 
Q 37.203125 6.109375 41.296875 11.75 
Q 45.40625 17.390625 45.40625 27.296875 
Q 45.40625 37.203125 41.296875 42.84375 
Q 37.203125 48.484375 30.078125 48.484375 
Q 22.953125 48.484375 18.875 42.84375 
Q 14.796875 37.203125 14.796875 27.296875 
z
" id="DejaVuSans-64"/>
      <path d="M 30.421875 75.984375 
L 30.421875 -13.1875 
L 9.71875 -13.1875 
L 9.71875 -6.203125 
L 21.390625 -6.203125 
L 21.390625 69 
L 9.71875 69 
L 9.71875 75.984375 
z
" id="DejaVuSans-5d"/>
     </defs>
     <g transform="translate(174.348437 280.276563)scale(0.1 -0.1)">
      <use xlink:href="#DejaVuSans-74"/>
      <use x="39.208984" xlink:href="#DejaVuSans-69"/>
      <use x="66.992188" xlink:href="#DejaVuSans-65"/>
      <use x="128.515625" xlink:href="#DejaVuSans-6d"/>
      <use x="225.927734" xlink:href="#DejaVuSans-70"/>
      <use x="289.404297" xlink:href="#DejaVuSans-6f"/>
      <use x="350.585938" xlink:href="#DejaVuSans-20"/>
      <use x="382.373047" xlink:href="#DejaVuSans-5b"/>
      <use x="421.386719" xlink:href="#DejaVuSans-73"/>
      <use x="473.486328" xlink:href="#DejaVuSans-65"/>
      <use x="535.009766" xlink:href="#DejaVuSans-67"/>
      <use x="598.486328" xlink:href="#DejaVuSans-75"/>
      <use x="661.865234" xlink:href="#DejaVuSans-6e"/>
      <use x="725.244141" xlink:href="#DejaVuSans-64"/>
      <use x="788.720703" xlink:href="#DejaVuSans-6f"/>
      <use x="849.902344" xlink:href="#DejaVuSans-73"/>
      <use x="902.001953" xlink:href="#DejaVuSans-5d"/>
     </g>
    </g>
   </g>
   <g id="matplotlib.axis_2">
    <g id="ytick_1">
     <g id="line2d_7">
      <defs>
       <path d="M 0 0 
L -3.5 0 
" id="ma745792cca" style="stroke:#000000;stroke-width:0.8;"/>
      </defs>
      <g>
       <use style="stroke:#000000;stroke-width:0.8;" x="54" xlink:href="#ma745792cca" y="242.116364"/>
      </g>
     </g>
     <g id="text_8">
      <!-- −1.00 -->
      <defs>
       <path d="M 10.59375 35.5 
L 73.1875 35.5 
L 73.1875 27.203125 
L 10.59375 27.203125 
z
" id="DejaVuSans-2212"/>
      </defs>
      <g transform="translate(16.354687 245.915582)scale(0.1 -0.1)">
       <use xlink:href="#DejaVuSans-2212"/>
       <use x="83.789062" xlink:href="#DejaVuSans-31"/>
       <use x="147.412109" xlink:href="#DejaVuSans-2e"/>
       <use x="179.199219" xlink:href="#DejaVuSans-30"/>
       <use x="242.822266" xlink:href="#DejaVuSans-30"/>
      </g>
     </g>
    </g>
    <g id="ytick_2">
     <g id="line2d_8">
      <g>
       <use style="stroke:#000000;stroke-width:0.8;" x="54" xlink:href="#ma745792cca" y="217.407273"/>
      </g>
     </g>
     <g id="text_9">
      <!-- −0.75 -->
      <defs>
       <path d="M 8.203125 72.90625 
L 55.078125 72.90625 
L 55.078125 68.703125 
L 28.609375 0 
L 18.3125 0 
L 43.21875 64.59375 
L 8.203125 64.59375 
z
" id="DejaVuSans-37"/>
       <path d="M 10.796875 72.90625 
L 49.515625 72.90625 
L 49.515625 64.59375 
L 19.828125 64.59375 
L 19.828125 46.734375 
Q 21.96875 47.46875 24.109375 47.828125 
Q 26.265625 48.1875 28.421875 48.1875 
Q 40.625 48.1875 47.75 41.5 
Q 54.890625 34.8125 54.890625 23.390625 
Q 54.890625 11.625 47.5625 5.09375 
Q 40.234375 -1.421875 26.90625 -1.421875 
Q 22.3125 -1.421875 17.546875 -0.640625 
Q 12.796875 0.140625 7.71875 1.703125 
L 7.71875 11.625 
Q 12.109375 9.234375 16.796875 8.0625 
Q 21.484375 6.890625 26.703125 6.890625 
Q 35.15625 6.890625 40.078125 11.328125 
Q 45.015625 15.765625 45.015625 23.390625 
Q 45.015625 31 40.078125 35.4375 
Q 35.15625 39.890625 26.703125 39.890625 
Q 22.75 39.890625 18.8125 39.015625 
Q 14.890625 38.140625 10.796875 36.28125 
z
" id="DejaVuSans-35"/>
      </defs>
      <g transform="translate(16.354687 221.206491)scale(0.1 -0.1)">
       <use xlink:href="#DejaVuSans-2212"/>
       <use x="83.789062" xlink:href="#DejaVuSans-30"/>
       <use x="147.412109" xlink:href="#DejaVuSans-2e"/>
       <use x="179.199219" xlink:href="#DejaVuSans-37"/>
       <use x="242.822266" xlink:href="#DejaVuSans-35"/>
      </g>
     </g>
    </g>
    <g id="ytick_3">
     <g id="line2d_9">
      <g>
       <use style="stroke:#000000;stroke-width:0.8;" x="54" xlink:href="#ma745792cca" y="192.698182"/>
      </g>
     </g>
     <g id="text_10">
      <!-- −0.50 -->
      <g transform="translate(16.354687 196.497401)scale(0.1 -0.1)">
       <use xlink:href="#DejaVuSans-2212"/>
       <use x="83.789062" xlink:href="#DejaVuSans-30"/>
       <use x="147.412109" xlink:href="#DejaVuSans-2e"/>
       <use x="179.199219" xlink:href="#DejaVuSans-35"/>
       <use x="242.822266" xlink:href="#DejaVuSans-30"/>
      </g>
     </g>
    </g>
    <g id="ytick_4">
     <g id="line2d_10">
      <g>
       <use style="stroke:#000000;stroke-width:0.8;" x="54" xlink:href="#ma745792cca" y="167.989091"/>
      </g>
     </g>
     <g id="text_11">
      <!-- −0.25 -->
      <g transform="translate(16.354687 171.78831)scale(0.1 -0.1)">
       <use xlink:href="#DejaVuSans-2212"/>
       <use x="83.789062" xlink:href="#DejaVuSans-30"/>
       <use x="147.412109" xlink:href="#DejaVuSans-2e"/>
       <use x="179.199219" xlink:href="#DejaVuSans-32"/>
       <use x="242.822266" xlink:href="#DejaVuSans-35"/>
      </g>
     </g>
    </g>
    <g id="ytick_5">
     <g id="line2d_11">
      <g>
       <use style="stroke:#000000;stroke-width:0.8;" x="54" xlink:href="#ma745792cca" y="143.28"/>
      </g>
     </g>
     <g id="text_12">
      <!-- 0.00 -->
      <g transform="translate(24.734375 147.079219)scale(0.1 -0.1)">
       <use xlink:href="#DejaVuSans-30"/>
       <use x="63.623047" xlink:href="#DejaVuSans-2e"/>
       <use x="95.410156" xlink:href="#DejaVuSans-30"/>
       <use x="159.033203" xlink:href="#DejaVuSans-30"/>
      </g>
     </g>
    </g>
    <g id="ytick_6">
     <g id="line2d_12">
      <g>
       <use style="stroke:#000000;stroke-width:0.8;" x="54" xlink:href="#ma745792cca" y="118.570909"/>
      </g>
     </g>
     <g id="text_13">
      <!-- 0.25 -->
      <g transform="translate(24.734375 122.370128)scale(0.1 -0.1)">
       <use xlink:href="#DejaVuSans-30"/>
       <use x="63.623047" xlink:href="#DejaVuSans-2e"/>
       <use x="95.410156" xlink:href="#DejaVuSans-32"/>
       <use x="159.033203" xlink:href="#DejaVuSans-35"/>
      </g>
     </g>
    </g>
    <g id="ytick_7">
     <g id="line2d_13">
      <g>
       <use style="stroke:#000000;stroke-width:0.8;" x="54" xlink:href="#ma745792cca" y="93.861818"/>
      </g>
     </g>
     <g id="text_14">
      <!-- 0.50 -->
      <g transform="translate(24.734375 97.661037)scale(0.1 -0.1)">
       <use xlink:href="#DejaVuSans-30"/>
       <use x="63.623047" xlink:href="#DejaVuSans-2e"/>
       <use x="95.410156" xlink:href="#DejaVuSans-35"/>
       <use x="159.033203" xlink:href="#DejaVuSans-30"/>
      </g>
     </g>
    </g>
    <g id="ytick_8">
     <g id="line2d_14">
      <g>
       <use style="stroke:#000000;stroke-width:0.8;" x="54" xlink:href="#ma745792cca" y="69.152727"/>
      </g>
     </g>
     <g id="text_15">
      <!-- 0.75 -->
      <g transform="translate(24.734375 72.951946)scale(0.1 -0.1)">
       <use xlink:href="#DejaVuSans-30"/>
       <use x="63.623047" xlink:href="#DejaVuSans-2e"/>
       <use x="95.410156" xlink:href="#DejaVuSans-37"/>
       <use x="159.033203" xlink:href="#DejaVuSans-35"/>
      </g>
     </g>
    </g>
    <g id="ytick_9">
     <g id="line2d_15">
      <g>
       <use style="stroke:#000000;stroke-width:0.8;" x="54" xlink:href="#ma745792cca" y="44.443636"/>
      </g>
     </g>
     <g id="text_16">
      <!-- 1.00 -->
      <g transform="translate(24.734375 48.242855)scale(0.1 -0.1)">
       <use xlink:href="#DejaVuSans-31"/>
       <use x="63.623047" xlink:href="#DejaVuSans-2e"/>
       <use x="95.410156" xlink:href="#DejaVuSans-30"/>
       <use x="159.033203" xlink:href="#DejaVuSans-30"/>
      </g>
     </g>
    </g>
    <g id="text_17">
     <!-- Amplitud [V] -->
     <defs>
      <path d="M 34.1875 63.1875 
L 20.796875 26.90625 
L 47.609375 26.90625 
z
M 28.609375 72.90625 
L 39.796875 72.90625 
L 67.578125 0 
L 57.328125 0 
L 50.6875 18.703125 
L 17.828125 18.703125 
L 11.1875 0 
L 0.78125 0 
z
" id="DejaVuSans-41"/>
      <path d="M 9.421875 75.984375 
L 18.40625 75.984375 
L 18.40625 0 
L 9.421875 0 
z
" id="DejaVuSans-6c"/>
      <path d="M 28.609375 0 
L 0.78125 72.90625 
L 11.078125 72.90625 
L 34.1875 11.53125 
L 57.328125 72.90625 
L 67.578125 72.90625 
L 39.796875 0 
z
" id="DejaVuSans-56"/>
     </defs>
     <g transform="translate(10.275 174.737031)rotate(-90)scale(0.1 -0.1)">
      <use xlink:href="#DejaVuSans-41"/>
      <use x="68.408203" xlink:href="#DejaVuSans-6d"/>
      <use x="165.820312" xlink:href="#DejaVuSans-70"/>
      <use x="229.296875" xlink:href="#DejaVuSans-6c"/>
      <use x="257.080078" xlink:href="#DejaVuSans-69"/>
      <use x="284.863281" xlink:href="#DejaVuSans-74"/>
      <use x="324.072266" xlink:href="#DejaVuSans-75"/>
      <use x="387.451172" xlink:href="#DejaVuSans-64"/>
      <use x="450.927734" xlink:href="#DejaVuSans-20"/>
      <use x="482.714844" xlink:href="#DejaVuSans-5b"/>
      <use x="521.728516" xlink:href="#DejaVuSans-56"/>
      <use x="590.136719" xlink:href="#DejaVuSans-5d"/>
     </g>
    </g>
   </g>
   <g id="line2d_16">
    <path clip-path="url(#p87f8ba09ca)" d="M 69.218182 143.28 
L 74.702211 110.385326 
L 77.748894 93.503714 
L 80.186241 81.241268 
L 82.318919 71.65792 
L 84.146929 64.428899 
L 85.67027 59.1708 
L 87.193612 54.65926 
L 88.412285 51.614694 
L 89.630958 49.090987 
L 90.849631 47.102482 
L 91.763636 45.969241 
L 92.677641 45.147094 
L 93.591646 44.638667 
L 94.505651 44.445587 
L 95.419656 44.568471 
L 96.333661 45.006926 
L 97.247666 45.759549 
L 98.161671 46.823936 
L 99.075676 48.196683 
L 100.294349 50.498959 
L 101.513022 53.328435 
L 102.731695 56.669034 
L 104.255037 61.534364 
L 105.778378 67.125273 
L 107.606388 74.72183 
L 109.739066 84.684188 
L 112.176413 97.306159 
L 114.918428 112.737884 
L 118.879115 136.454358 
L 125.581818 176.759624 
L 128.628501 193.591802 
L 131.065848 205.800935 
L 133.198526 215.328608 
L 135.026536 222.503966 
L 136.549877 227.713675 
L 138.073219 232.173945 
L 139.291892 235.175727 
L 140.510565 237.655339 
L 141.729238 239.598692 
L 142.643243 240.697528 
L 143.557248 241.484929 
L 144.471253 241.958379 
L 145.385258 242.116364 
L 146.299263 241.958379 
L 147.213268 241.484929 
L 148.127273 240.697528 
L 149.041278 239.598692 
L 149.955283 238.191936 
L 151.173956 235.845185 
L 152.392629 232.972461 
L 153.611302 229.590086 
L 155.134644 224.674967 
L 156.657985 219.037382 
L 158.485995 211.389503 
L 160.618673 201.374557 
L 163.05602 188.703202 
L 165.798034 173.230904 
L 169.758722 149.485987 
L 176.461425 109.216747 
L 179.508108 92.434667 
L 181.945455 80.279331 
L 184.078133 70.807708 
L 185.906143 63.686297 
L 187.429484 58.525184 
L 188.952826 54.11636 
L 190.171499 51.157481 
L 191.390172 48.72206 
L 192.608845 46.823936 
L 193.52285 45.759549 
L 194.436855 45.006926 
L 195.35086 44.568471 
L 196.264865 44.445587 
L 197.17887 44.638667 
L 198.092875 45.147094 
L 199.00688 45.969241 
L 199.920885 47.102482 
L 200.834889 48.543192 
L 202.053563 50.934325 
L 203.272236 53.850184 
L 204.795577 58.207388 
L 206.318919 63.319702 
L 208.146929 70.386885 
L 209.974939 78.385451 
L 212.107617 88.757328 
L 214.544963 101.760254 
L 217.591646 119.302374 
L 222.771007 150.725028 
L 227.341032 177.925538 
L 230.083047 193.056286 
L 232.520393 205.318732 
L 234.653071 214.90208 
L 236.481081 222.131101 
L 238.004423 227.3892 
L 239.527764 231.90074 
L 240.746437 234.945306 
L 241.965111 237.469013 
L 243.183784 239.457518 
L 244.097789 240.590759 
L 245.011794 241.412906 
L 245.925799 241.921333 
L 246.839803 242.114413 
L 247.753808 241.991529 
L 248.667813 241.553074 
L 249.581818 240.800451 
L 250.495823 239.736064 
L 251.409828 238.363317 
L 252.628501 236.061041 
L 253.847174 233.231565 
L 255.065848 229.890966 
L 256.589189 225.025636 
L 258.112531 219.434727 
L 259.940541 211.83817 
L 262.073219 201.875812 
L 264.510565 189.253841 
L 267.25258 173.822116 
L 271.213268 150.105642 
L 277.915971 109.800376 
L 280.962654 92.968198 
L 283.4 80.759065 
L 285.532678 71.231392 
L 287.360688 64.056034 
L 288.884029 58.846325 
L 290.407371 54.386055 
L 291.626044 51.384273 
L 292.844717 48.904661 
L 294.063391 46.961308 
L 294.977396 45.862472 
L 295.8914 45.075071 
L 296.805405 44.601621 
L 297.71941 44.443636 
L 298.633415 44.601621 
L 299.54742 45.075071 
L 300.461425 45.862472 
L 301.37543 46.961308 
L 302.289435 48.368064 
L 303.508108 50.714815 
L 304.726781 53.587539 
L 305.945455 56.969914 
L 307.468796 61.885033 
L 308.992138 67.522618 
L 310.820147 75.170497 
L 312.952826 85.185443 
L 315.390172 97.856798 
L 318.132187 113.329096 
L 322.092875 137.074013 
L 328.795577 177.343253 
L 331.84226 194.125333 
L 334.279607 206.280669 
L 336.412285 215.752292 
L 338.240295 222.873703 
L 339.763636 228.034816 
L 341.286978 232.44364 
L 342.505651 235.402519 
L 343.724324 237.83794 
L 344.942998 239.736064 
L 345.857002 240.800451 
L 346.771007 241.553074 
L 347.685012 241.991529 
L 348.599017 242.114413 
L 349.513022 241.921333 
L 350.427027 241.412906 
L 351.341032 240.590759 
L 352.255037 239.457518 
L 353.169042 238.016808 
L 354.387715 235.625675 
L 355.606388 232.709816 
L 357.12973 228.352612 
L 358.653071 223.240298 
L 360.481081 216.173115 
L 362.309091 208.174549 
L 364.441769 197.802672 
L 366.879115 184.799746 
L 369.925799 167.257626 
L 373.581818 145.142911 
L 373.581818 145.142911 
" style="fill:none;stroke:#1f77b4;stroke-linecap:square;stroke-width:1.5;"/>
   </g>
   <g id="line2d_17">
    <path clip-path="url(#p87f8ba09ca)" d="M 69.218182 143.28 
L 72.569533 103.458193 
L 74.397543 84.185246 
L 75.920885 70.386885 
L 77.139558 61.186922 
L 78.358231 53.850184 
L 79.272236 49.672248 
L 80.186241 46.690372 
L 80.795577 45.386394 
L 81.404914 44.638667 
L 81.709582 44.47485 
L 82.014251 44.45144 
L 82.318919 44.568471 
L 82.928256 45.222991 
L 83.537592 46.43469 
L 84.146929 48.196683 
L 85.060934 51.848733 
L 85.974939 56.669034 
L 86.888943 62.595997 
L 88.107617 72.087275 
L 89.630958 86.194814 
L 91.458968 105.744015 
L 93.896314 134.597107 
L 98.161671 185.362477 
L 99.989681 204.346997 
L 101.513022 217.827464 
L 102.731695 226.730302 
L 103.6457 232.173945 
L 104.559705 236.481756 
L 105.47371 239.598692 
L 106.083047 240.994743 
L 106.692383 241.83556 
L 106.997052 242.046138 
L 107.30172 242.116364 
L 107.606388 242.046138 
L 107.911057 241.83556 
L 108.520393 240.994743 
L 109.12973 239.598692 
L 109.739066 237.655339 
L 110.653071 233.739109 
L 111.567076 228.667049 
L 112.785749 220.220383 
L 114.004423 210.027439 
L 115.527764 195.186351 
L 117.355774 175.000899 
L 120.402457 138.314034 
L 123.44914 102.324624 
L 125.27715 83.19438 
L 126.800491 69.55389 
L 128.019165 60.501774 
L 128.93317 54.935964 
L 129.847174 50.498959 
L 130.761179 47.247453 
L 131.370516 45.759549 
L 131.979853 44.825776 
L 132.589189 44.45144 
L 132.893857 44.47485 
L 133.198526 44.638667 
L 133.807862 45.386394 
L 134.417199 46.690372 
L 135.026536 48.543192 
L 135.940541 52.327631 
L 136.854545 57.274202 
L 137.76855 63.319702 
L 138.987224 72.954401 
L 140.510565 87.2132 
L 142.338575 106.895908 
L 145.08059 139.554839 
L 148.736609 183.101807 
L 150.564619 202.374754 
L 152.087961 216.173115 
L 153.306634 225.373078 
L 154.525307 232.709816 
L 155.439312 236.887752 
L 156.353317 239.869628 
L 156.962654 241.173606 
L 157.57199 241.921333 
L 157.876658 242.08515 
L 158.181327 242.10856 
L 158.485995 241.991529 
L 159.095332 241.337009 
L 159.704668 240.12531 
L 160.314005 238.363317 
L 161.22801 234.711267 
L 162.142015 229.890966 
L 163.05602 223.964003 
L 164.274693 214.472725 
L 165.798034 200.365186 
L 167.626044 180.815985 
L 170.063391 151.962893 
L 174.328747 101.197523 
L 176.156757 82.213003 
L 177.680098 68.732536 
L 178.898771 59.829698 
L 179.812776 54.386055 
L 180.726781 50.078244 
L 181.640786 46.961308 
L 182.250123 45.565257 
L 182.859459 44.72444 
L 183.164128 44.513862 
L 183.468796 44.443636 
L 183.773464 44.513862 
L 184.078133 44.72444 
L 184.687469 45.565257 
L 185.296806 46.961308 
L 185.906143 48.904661 
L 186.820147 52.820891 
L 187.734152 57.892951 
L 188.952826 66.339617 
L 190.171499 76.532561 
L 191.69484 91.373649 
L 193.52285 111.559101 
L 196.569533 148.245966 
L 199.616216 184.235376 
L 201.444226 203.36562 
L 202.967568 217.00611 
L 204.186241 226.058226 
L 205.100246 231.624036 
L 206.014251 236.061041 
L 206.928256 239.312547 
L 207.537592 240.800451 
L 208.146929 241.734224 
L 208.756265 242.10856 
L 209.060934 242.08515 
L 209.365602 241.921333 
L 209.974939 241.173606 
L 210.584275 239.869628 
L 211.193612 238.016808 
L 212.107617 234.232369 
L 213.021622 229.285798 
L 213.935627 223.240298 
L 215.1543 213.605599 
L 216.677641 199.3468 
L 218.505651 179.664092 
L 221.247666 147.005161 
L 224.903686 103.458193 
L 226.731695 84.185246 
L 228.255037 70.386885 
L 229.47371 61.186922 
L 230.692383 53.850184 
L 231.606388 49.672248 
L 232.520393 46.690372 
L 233.12973 45.386394 
L 233.739066 44.638667 
L 234.043735 44.47485 
L 234.348403 44.45144 
L 234.653071 44.568471 
L 235.262408 45.222991 
L 235.871744 46.43469 
L 236.481081 48.196683 
L 237.395086 51.848733 
L 238.309091 56.669034 
L 239.223096 62.595997 
L 240.441769 72.087275 
L 241.965111 86.194814 
L 243.79312 105.744015 
L 246.230467 134.597107 
L 250.495823 185.362477 
L 252.323833 204.346997 
L 253.847174 217.827464 
L 255.065848 226.730302 
L 255.979853 232.173945 
L 256.893857 236.481756 
L 257.807862 239.598692 
L 258.417199 240.994743 
L 259.026536 241.83556 
L 259.331204 242.046138 
L 259.635872 242.116364 
L 259.940541 242.046138 
L 260.245209 241.83556 
L 260.854545 240.994743 
L 261.463882 239.598692 
L 262.073219 237.655339 
L 262.987224 233.739109 
L 263.901229 228.667049 
L 265.119902 220.220383 
L 266.338575 210.027439 
L 267.861916 195.186351 
L 269.689926 175.000899 
L 272.736609 138.314034 
L 275.783292 102.324624 
L 277.611302 83.19438 
L 279.134644 69.55389 
L 280.353317 60.501774 
L 281.267322 54.935964 
L 282.181327 50.498959 
L 283.095332 47.247453 
L 283.704668 45.759549 
L 284.314005 44.825776 
L 284.923342 44.45144 
L 285.22801 44.47485 
L 285.532678 44.638667 
L 286.142015 45.386394 
L 286.751351 46.690372 
L 287.360688 48.543192 
L 288.274693 52.327631 
L 289.188698 57.274202 
L 290.102703 63.319702 
L 291.321376 72.954401 
L 292.844717 87.2132 
L 294.672727 106.895908 
L 297.414742 139.554839 
L 301.070762 183.101807 
L 302.898771 202.374754 
L 304.422113 216.173115 
L 305.640786 225.373078 
L 306.859459 232.709816 
L 307.773464 236.887752 
L 308.687469 239.869628 
L 309.296806 241.173606 
L 309.906143 241.921333 
L 310.210811 242.08515 
L 310.515479 242.10856 
L 310.820147 241.991529 
L 311.429484 241.337009 
L 312.038821 240.12531 
L 312.648157 238.363317 
L 313.562162 234.711267 
L 314.476167 229.890966 
L 315.390172 223.964003 
L 316.608845 214.472725 
L 318.132187 200.365186 
L 319.960197 180.815985 
L 322.397543 151.962893 
L 326.662899 101.197523 
L 328.490909 82.213003 
L 330.014251 68.732536 
L 331.232924 59.829698 
L 332.146929 54.386055 
L 333.060934 50.078244 
L 333.974939 46.961308 
L 334.584275 45.565257 
L 335.193612 44.72444 
L 335.49828 44.513862 
L 335.802948 44.443636 
L 336.107617 44.513862 
L 336.412285 44.72444 
L 337.021622 45.565257 
L 337.630958 46.961308 
L 338.240295 48.904661 
L 339.1543 52.820891 
L 340.068305 57.892951 
L 341.286978 66.339617 
L 342.505651 76.532561 
L 344.028993 91.373649 
L 345.857002 111.559101 
L 348.903686 148.245966 
L 351.950369 184.235376 
L 353.778378 203.36562 
L 355.30172 217.00611 
L 356.520393 226.058226 
L 357.434398 231.624036 
L 358.348403 236.061041 
L 359.262408 239.312547 
L 359.871744 240.800451 
L 360.481081 241.734224 
L 361.090418 242.10856 
L 361.395086 242.08515 
L 361.699754 241.921333 
L 362.309091 241.173606 
L 362.918428 239.869628 
L 363.527764 238.016808 
L 364.441769 234.232369 
L 365.355774 229.285798 
L 366.269779 223.240298 
L 367.488452 213.605599 
L 369.011794 199.3468 
L 370.839803 179.664092 
L 373.581818 147.005161 
L 373.581818 147.005161 
" style="fill:none;stroke:#ff7f0e;stroke-linecap:square;stroke-width:1.5;"/>
   </g>
   <g id="line2d_18">
    <path clip-path="url(#p87f8ba09ca)" d="M 69.218182 143.28 
L 71.655528 100.077067 
L 73.17887 76.991876 
L 74.397543 62.238915 
L 75.311548 53.850184 
L 75.920885 49.672248 
L 76.530221 46.690372 
L 77.139558 44.942659 
L 77.444226 44.539218 
L 77.748894 44.45144 
L 78.053563 44.679608 
L 78.358231 45.222991 
L 78.967568 47.247453 
L 79.576904 50.498959 
L 80.186241 54.935964 
L 81.100246 63.686297 
L 82.014251 74.72183 
L 83.232924 92.434667 
L 84.756265 118.099388 
L 89.32629 198.319561 
L 90.544963 215.328608 
L 91.458968 225.717279 
L 92.372973 233.739109 
L 92.98231 237.655339 
L 93.591646 240.3657 
L 94.200983 241.83556 
L 94.505651 242.098806 
L 94.810319 242.046138 
L 95.114988 241.677724 
L 95.419656 240.994743 
L 96.028993 238.694811 
L 96.638329 235.175727 
L 97.247666 230.482456 
L 98.161671 221.376048 
L 99.075676 210.027439 
L 100.294349 191.979379 
L 102.122359 160.578643 
L 105.778378 95.665219 
L 106.997052 77.453809 
L 108.215725 62.595997 
L 109.12973 54.11636 
L 109.739066 49.873402 
L 110.348403 46.823936 
L 110.95774 45.006926 
L 111.262408 44.568471 
L 111.567076 44.445587 
L 111.871744 44.638667 
L 112.176413 45.147094 
L 112.785749 47.102482 
L 113.395086 50.286766 
L 114.004423 54.65926 
L 114.918428 63.319702 
L 115.832432 74.275869 
L 117.051106 91.903144 
L 118.574447 117.499374 
L 123.144472 197.802672 
L 124.363145 214.90208 
L 125.27715 225.373078 
L 126.191155 233.487118 
L 126.800491 237.469013 
L 127.409828 240.247419 
L 128.019165 241.786836 
L 128.323833 242.08515 
L 128.628501 242.067594 
L 128.93317 241.734224 
L 129.237838 241.086105 
L 129.847174 238.854911 
L 130.456511 235.402519 
L 131.065848 230.773044 
L 131.979853 221.755124 
L 132.893857 210.484119 
L 134.112531 192.518804 
L 135.940541 161.189719 
L 139.901229 91.373649 
L 141.119902 73.832632 
L 142.033907 62.956264 
L 142.947912 54.386055 
L 143.557248 50.078244 
L 144.166585 46.961308 
L 144.775921 45.075071 
L 145.08059 44.601621 
L 145.385258 44.443636 
L 145.689926 44.601621 
L 145.994595 45.075071 
L 146.299263 45.862472 
L 146.9086 48.368064 
L 147.517936 52.086382 
L 148.431941 59.829698 
L 149.345946 69.96894 
L 150.564619 86.70289 
L 152.087961 111.559101 
L 157.57199 206.280669 
L 158.790663 221.755124 
L 159.704668 230.773044 
L 160.618673 237.278968 
L 161.22801 240.12531 
L 161.837346 241.734224 
L 162.142015 242.067594 
L 162.446683 242.08515 
L 162.751351 241.786836 
L 163.05602 241.173606 
L 163.665356 239.011238 
L 164.274693 235.625675 
L 164.884029 231.060177 
L 165.798034 222.131101 
L 166.712039 210.938147 
L 167.930713 193.056286 
L 169.454054 167.257626 
L 174.024079 87.2132 
L 175.242752 70.386885 
L 176.156757 60.164095 
L 177.070762 52.327631 
L 177.680098 48.543192 
L 178.289435 45.969241 
L 178.898771 44.638667 
L 179.20344 44.445587 
L 179.508108 44.568471 
L 179.812776 45.006926 
L 180.117445 45.759549 
L 180.726781 48.196683 
L 181.336118 51.848733 
L 181.945455 56.669034 
L 182.859459 65.951337 
L 183.773464 77.453809 
L 184.992138 95.665219 
L 186.820147 127.205534 
L 190.476167 191.979379 
L 191.69484 210.027439 
L 192.913514 224.674967 
L 193.827518 232.972461 
L 194.436855 237.085212 
L 195.046192 239.999378 
L 195.655528 241.677724 
L 195.960197 242.046138 
L 196.264865 242.098806 
L 196.569533 241.83556 
L 196.874201 241.257241 
L 197.483538 239.163785 
L 198.092875 235.845185 
L 198.702211 231.343845 
L 199.616216 222.503966 
L 200.530221 211.389503 
L 201.748894 193.591802 
L 203.272236 167.859604 
L 207.84226 87.725723 
L 209.060934 70.807708 
L 209.974939 60.501774 
L 210.888943 52.57247 
L 211.49828 48.72206 
L 212.107617 46.079852 
L 212.716953 44.679608 
L 213.021622 44.45144 
L 213.32629 44.539218 
L 213.630958 44.942659 
L 213.935627 45.660476 
L 214.544963 48.029056 
L 215.1543 51.614694 
L 215.763636 56.371573 
L 216.677641 65.566111 
L 217.591646 76.991876 
L 218.810319 95.121969 
L 220.638329 126.593116 
L 224.294349 191.438031 
L 225.513022 209.568124 
L 226.731695 224.321085 
L 227.6457 232.709816 
L 228.255037 236.887752 
L 228.864373 239.869628 
L 229.47371 241.617341 
L 229.778378 242.020782 
L 230.083047 242.10856 
L 230.387715 241.880392 
L 230.692383 241.337009 
L 231.30172 239.312547 
L 231.911057 236.061041 
L 232.520393 231.624036 
L 233.434398 222.873703 
L 234.348403 211.83817 
L 235.567076 194.125333 
L 237.090418 168.460612 
L 241.660442 88.240439 
L 242.879115 71.231392 
L 243.79312 60.842721 
L 244.707125 52.820891 
L 245.316462 48.904661 
L 245.925799 46.1943 
L 246.535135 44.72444 
L 246.839803 44.461194 
L 247.144472 44.513862 
L 247.44914 44.882276 
L 247.753808 45.565257 
L 248.363145 47.865189 
L 248.972482 51.384273 
L 249.581818 56.077544 
L 250.495823 65.183952 
L 251.409828 76.532561 
L 252.628501 94.580621 
L 254.456511 125.981357 
L 258.112531 190.894781 
L 259.331204 209.106191 
L 260.549877 223.964003 
L 261.463882 232.44364 
L 262.073219 236.686598 
L 262.682555 239.736064 
L 263.291892 241.553074 
L 263.59656 241.991529 
L 263.901229 242.114413 
L 264.205897 241.921333 
L 264.510565 241.412906 
L 265.119902 239.457518 
L 265.729238 236.273234 
L 266.338575 231.90074 
L 267.25258 223.240298 
L 268.166585 212.284131 
L 269.385258 194.656856 
L 270.9086 169.060626 
L 275.478624 88.757328 
L 276.697297 71.65792 
L 277.611302 61.186922 
L 278.525307 53.072882 
L 279.134644 49.090987 
L 279.74398 46.312581 
L 280.353317 44.773164 
L 280.657985 44.47485 
L 280.962654 44.492406 
L 281.267322 44.825776 
L 281.57199 45.473895 
L 282.181327 47.705089 
L 282.790663 51.157481 
L 283.4 55.786956 
L 284.314005 64.804876 
L 285.22801 76.075881 
L 286.446683 94.041196 
L 288.274693 125.370281 
L 292.235381 195.186351 
L 293.454054 212.727368 
L 294.368059 223.603736 
L 295.282064 232.173945 
L 295.8914 236.481756 
L 296.500737 239.598692 
L 297.110074 241.484929 
L 297.414742 241.958379 
L 297.71941 242.116364 
L 298.024079 241.958379 
L 298.328747 241.484929 
L 298.633415 240.697528 
L 299.242752 238.191936 
L 299.852088 234.473618 
L 300.766093 226.730302 
L 301.680098 216.59106 
L 302.898771 199.85711 
L 304.422113 175.000899 
L 309.906143 80.279331 
L 311.124816 64.804876 
L 312.038821 55.786956 
L 312.952826 49.281032 
L 313.562162 46.43469 
L 314.171499 44.825776 
L 314.476167 44.492406 
L 314.780835 44.47485 
L 315.085504 44.773164 
L 315.390172 45.386394 
L 315.999509 47.548762 
L 316.608845 50.934325 
L 317.218182 55.499823 
L 318.132187 64.428899 
L 319.046192 75.621853 
L 320.264865 93.503714 
L 321.788206 119.302374 
L 326.358231 199.3468 
L 327.576904 216.173115 
L 328.490909 226.395905 
L 329.404914 234.232369 
L 330.014251 238.016808 
L 330.623587 240.590759 
L 331.232924 241.921333 
L 331.537592 242.114413 
L 331.84226 241.991529 
L 332.146929 241.553074 
L 332.451597 240.800451 
L 333.060934 238.363317 
L 333.67027 234.711267 
L 334.279607 229.890966 
L 335.193612 220.608663 
L 336.107617 209.106191 
L 337.32629 190.894781 
L 339.1543 159.354466 
L 342.810319 94.580621 
L 344.028993 76.532561 
L 345.247666 61.885033 
L 346.161671 53.587539 
L 346.771007 49.474788 
L 347.380344 46.560622 
L 347.989681 44.882276 
L 348.294349 44.513862 
L 348.599017 44.461194 
L 348.903686 44.72444 
L 349.208354 45.302759 
L 349.81769 47.396215 
L 350.427027 50.714815 
L 351.036364 55.216155 
L 351.950369 64.056034 
L 352.864373 75.170497 
L 354.083047 92.968198 
L 355.606388 118.700396 
L 360.176413 198.834277 
L 361.395086 215.752292 
L 362.309091 226.058226 
L 363.223096 233.98753 
L 363.832432 237.83794 
L 364.441769 240.480148 
L 365.051106 241.880392 
L 365.355774 242.10856 
L 365.660442 242.020782 
L 365.965111 241.617341 
L 366.269779 240.899524 
L 366.879115 238.530944 
L 367.488452 234.945306 
L 368.097789 230.188427 
L 369.011794 220.993889 
L 369.925799 209.568124 
L 371.144472 191.438031 
L 372.972482 159.966884 
L 373.581818 148.866086 
L 373.581818 148.866086 
" style="fill:none;stroke:#2ca02c;stroke-linecap:square;stroke-width:1.5;"/>
   </g>
   <g id="patch_3">
    <path d="M 54 252 
L 54 34.56 
" style="fill:none;stroke:#000000;stroke-linecap:square;stroke-linejoin:miter;stroke-width:0.8;"/>
   </g>
   <g id="patch_4">
    <path d="M 388.8 252 
L 388.8 34.56 
" style="fill:none;stroke:#000000;stroke-linecap:square;stroke-linejoin:miter;stroke-width:0.8;"/>
   </g>
   <g id="patch_5">
    <path d="M 54 252 
L 388.8 252 
" style="fill:none;stroke:#000000;stroke-linecap:square;stroke-linejoin:miter;stroke-width:0.8;"/>
   </g>
   <g id="patch_6">
    <path d="M 54 34.56 
L 388.8 34.56 
" style="fill:none;stroke:#000000;stroke-linecap:square;stroke-linejoin:miter;stroke-width:0.8;"/>
   </g>
   <g id="text_18">
    <!-- Señal: senoidal -->
    <defs>
     <path d="M 53.515625 70.515625 
L 53.515625 60.890625 
Q 47.90625 63.578125 42.921875 64.890625 
Q 37.9375 66.21875 33.296875 66.21875 
Q 25.25 66.21875 20.875 63.09375 
Q 16.5 59.96875 16.5 54.203125 
Q 16.5 49.359375 19.40625 46.890625 
Q 22.3125 44.4375 30.421875 42.921875 
L 36.375 41.703125 
Q 47.40625 39.59375 52.65625 34.296875 
Q 57.90625 29 57.90625 20.125 
Q 57.90625 9.515625 50.796875 4.046875 
Q 43.703125 -1.421875 29.984375 -1.421875 
Q 24.8125 -1.421875 18.96875 -0.25 
Q 13.140625 0.921875 6.890625 3.21875 
L 6.890625 13.375 
Q 12.890625 10.015625 18.65625 8.296875 
Q 24.421875 6.59375 29.984375 6.59375 
Q 38.421875 6.59375 43.015625 9.90625 
Q 47.609375 13.234375 47.609375 19.390625 
Q 47.609375 24.75 44.3125 27.78125 
Q 41.015625 30.8125 33.5 32.328125 
L 27.484375 33.5 
Q 16.453125 35.6875 11.515625 40.375 
Q 6.59375 45.0625 6.59375 53.421875 
Q 6.59375 63.09375 13.40625 68.65625 
Q 20.21875 74.21875 32.171875 74.21875 
Q 37.3125 74.21875 42.625 73.28125 
Q 47.953125 72.359375 53.515625 70.515625 
z
" id="DejaVuSans-53"/>
     <path d="M 54.890625 33.015625 
L 54.890625 0 
L 45.90625 0 
L 45.90625 32.71875 
Q 45.90625 40.484375 42.875 44.328125 
Q 39.84375 48.1875 33.796875 48.1875 
Q 26.515625 48.1875 22.3125 43.546875 
Q 18.109375 38.921875 18.109375 30.90625 
L 18.109375 0 
L 9.078125 0 
L 9.078125 54.6875 
L 18.109375 54.6875 
L 18.109375 46.1875 
Q 21.34375 51.125 25.703125 53.5625 
Q 30.078125 56 35.796875 56 
Q 45.21875 56 50.046875 50.171875 
Q 54.890625 44.34375 54.890625 33.015625 
z
M 32.1875 66.890625 
L 29.390625 69.578125 
Q 28.328125 70.5625 27.515625 71.015625 
Q 26.71875 71.484375 26.078125 71.484375 
Q 24.21875 71.484375 23.34375 69.703125 
Q 22.46875 67.921875 22.359375 63.921875 
L 16.265625 63.921875 
Q 16.359375 70.515625 18.84375 74.09375 
Q 21.34375 77.6875 25.78125 77.6875 
Q 27.640625 77.6875 29.203125 77 
Q 30.765625 76.3125 32.578125 74.703125 
L 35.359375 72.015625 
Q 36.421875 71.046875 37.234375 70.578125 
Q 38.046875 70.125 38.671875 70.125 
Q 40.53125 70.125 41.40625 71.90625 
Q 42.28125 73.6875 42.390625 77.6875 
L 48.484375 77.6875 
Q 48.390625 71.09375 45.890625 67.5 
Q 43.40625 63.921875 38.96875 63.921875 
Q 37.109375 63.921875 35.546875 64.59375 
Q 33.984375 65.28125 32.1875 66.890625 
z
" id="DejaVuSans-f1"/>
     <path d="M 34.28125 27.484375 
Q 23.390625 27.484375 19.1875 25 
Q 14.984375 22.515625 14.984375 16.5 
Q 14.984375 11.71875 18.140625 8.90625 
Q 21.296875 6.109375 26.703125 6.109375 
Q 34.1875 6.109375 38.703125 11.40625 
Q 43.21875 16.703125 43.21875 25.484375 
L 43.21875 27.484375 
z
M 52.203125 31.203125 
L 52.203125 0 
L 43.21875 0 
L 43.21875 8.296875 
Q 40.140625 3.328125 35.546875 0.953125 
Q 30.953125 -1.421875 24.3125 -1.421875 
Q 15.921875 -1.421875 10.953125 3.296875 
Q 6 8.015625 6 15.921875 
Q 6 25.140625 12.171875 29.828125 
Q 18.359375 34.515625 30.609375 34.515625 
L 43.21875 34.515625 
L 43.21875 35.40625 
Q 43.21875 41.609375 39.140625 45 
Q 35.0625 48.390625 27.6875 48.390625 
Q 23 48.390625 18.546875 47.265625 
Q 14.109375 46.140625 10.015625 43.890625 
L 10.015625 52.203125 
Q 14.9375 54.109375 19.578125 55.046875 
Q 24.21875 56 28.609375 56 
Q 40.484375 56 46.34375 49.84375 
Q 52.203125 43.703125 52.203125 31.203125 
z
" id="DejaVuSans-61"/>
     <path d="M 11.71875 12.40625 
L 22.015625 12.40625 
L 22.015625 0 
L 11.71875 0 
z
M 11.71875 51.703125 
L 22.015625 51.703125 
L 22.015625 39.3125 
L 11.71875 39.3125 
z
" id="DejaVuSans-3a"/>
    </defs>
    <g transform="translate(175.71375 28.56)scale(0.12 -0.12)">
     <use xlink:href="#DejaVuSans-53"/>
     <use x="63.476562" xlink:href="#DejaVuSans-65"/>
     <use x="125" xlink:href="#DejaVuSans-f1"/>
     <use x="188.378906" xlink:href="#DejaVuSans-61"/>
     <use x="249.658203" xlink:href="#DejaVuSans-6c"/>
     <use x="277.441406" xlink:href="#DejaVuSans-3a"/>
     <use x="311.132812" xlink:href="#DejaVuSans-20"/>
     <use x="342.919922" xlink:href="#DejaVuSans-73"/>
     <use x="395.019531" xlink:href="#DejaVuSans-65"/>
     <use x="456.542969" xlink:href="#DejaVuSans-6e"/>
     <use x="519.921875" xlink:href="#DejaVuSans-6f"/>
     <use x="581.103516" xlink:href="#DejaVuSans-69"/>
     <use x="608.886719" xlink:href="#DejaVuSans-64"/>
     <use x="672.363281" xlink:href="#DejaVuSans-61"/>
     <use x="733.642578" xlink:href="#DejaVuSans-6c"/>
    </g>
   </g>
   <g id="legend_1">
    <g id="patch_7">
     <path d="M 327.490625 86.594375 
L 381.8 86.594375 
Q 383.8 86.594375 383.8 84.594375 
L 383.8 41.56 
Q 383.8 39.56 381.8 39.56 
L 327.490625 39.56 
Q 325.490625 39.56 325.490625 41.56 
L 325.490625 84.594375 
Q 325.490625 86.594375 327.490625 86.594375 
z
" style="fill:#ffffff;opacity:0.8;stroke:#cccccc;stroke-linejoin:miter;"/>
    </g>
    <g id="line2d_19">
     <path d="M 329.490625 47.658438 
L 349.490625 47.658438 
" style="fill:none;stroke:#1f77b4;stroke-linecap:square;stroke-width:1.5;"/>
    </g>
    <g id="line2d_20"/>
    <g id="text_19">
     <!-- 3 Hz -->
     <defs>
      <path d="M 40.578125 39.3125 
Q 47.65625 37.796875 51.625 33 
Q 55.609375 28.21875 55.609375 21.1875 
Q 55.609375 10.40625 48.1875 4.484375 
Q 40.765625 -1.421875 27.09375 -1.421875 
Q 22.515625 -1.421875 17.65625 -0.515625 
Q 12.796875 0.390625 7.625 2.203125 
L 7.625 11.71875 
Q 11.71875 9.328125 16.59375 8.109375 
Q 21.484375 6.890625 26.8125 6.890625 
Q 36.078125 6.890625 40.9375 10.546875 
Q 45.796875 14.203125 45.796875 21.1875 
Q 45.796875 27.640625 41.28125 31.265625 
Q 36.765625 34.90625 28.71875 34.90625 
L 20.21875 34.90625 
L 20.21875 43.015625 
L 29.109375 43.015625 
Q 36.375 43.015625 40.234375 45.921875 
Q 44.09375 48.828125 44.09375 54.296875 
Q 44.09375 59.90625 40.109375 62.90625 
Q 36.140625 65.921875 28.71875 65.921875 
Q 24.65625 65.921875 20.015625 65.03125 
Q 15.375 64.15625 9.8125 62.3125 
L 9.8125 71.09375 
Q 15.4375 72.65625 20.34375 73.4375 
Q 25.25 74.21875 29.59375 74.21875 
Q 40.828125 74.21875 47.359375 69.109375 
Q 53.90625 64.015625 53.90625 55.328125 
Q 53.90625 49.265625 50.4375 45.09375 
Q 46.96875 40.921875 40.578125 39.3125 
z
" id="DejaVuSans-33"/>
      <path d="M 9.8125 72.90625 
L 19.671875 72.90625 
L 19.671875 43.015625 
L 55.515625 43.015625 
L 55.515625 72.90625 
L 65.375 72.90625 
L 65.375 0 
L 55.515625 0 
L 55.515625 34.71875 
L 19.671875 34.71875 
L 19.671875 0 
L 9.8125 0 
z
" id="DejaVuSans-48"/>
      <path d="M 5.515625 54.6875 
L 48.1875 54.6875 
L 48.1875 46.484375 
L 14.40625 7.171875 
L 48.1875 7.171875 
L 48.1875 0 
L 4.296875 0 
L 4.296875 8.203125 
L 38.09375 47.515625 
L 5.515625 47.515625 
z
" id="DejaVuSans-7a"/>
     </defs>
     <g transform="translate(357.490625 51.158438)scale(0.1 -0.1)">
      <use xlink:href="#DejaVuSans-33"/>
      <use x="63.623047" xlink:href="#DejaVuSans-20"/>
      <use x="95.410156" xlink:href="#DejaVuSans-48"/>
      <use x="170.605469" xlink:href="#DejaVuSans-7a"/>
     </g>
    </g>
    <g id="line2d_21">
     <path d="M 329.490625 62.336563 
L 349.490625 62.336563 
" style="fill:none;stroke:#ff7f0e;stroke-linecap:square;stroke-width:1.5;"/>
    </g>
    <g id="line2d_22"/>
    <g id="text_20">
     <!-- 6 Hz -->
     <g transform="translate(357.490625 65.836563)scale(0.1 -0.1)">
      <use xlink:href="#DejaVuSans-36"/>
      <use x="63.623047" xlink:href="#DejaVuSans-20"/>
      <use x="95.410156" xlink:href="#DejaVuSans-48"/>
      <use x="170.605469" xlink:href="#DejaVuSans-7a"/>
     </g>
    </g>
    <g id="line2d_23">
     <path d="M 329.490625 77.014688 
L 349.490625 77.014688 
" style="fill:none;stroke:#2ca02c;stroke-linecap:square;stroke-width:1.5;"/>
    </g>
    <g id="line2d_24"/>
    <g id="text_21">
     <!-- 9 Hz -->
     <defs>
      <path d="M 10.984375 1.515625 
L 10.984375 10.5 
Q 14.703125 8.734375 18.5 7.8125 
Q 22.3125 6.890625 25.984375 6.890625 
Q 35.75 6.890625 40.890625 13.453125 
Q 46.046875 20.015625 46.78125 33.40625 
Q 43.953125 29.203125 39.59375 26.953125 
Q 35.25 24.703125 29.984375 24.703125 
Q 19.046875 24.703125 12.671875 31.3125 
Q 6.296875 37.9375 6.296875 49.421875 
Q 6.296875 60.640625 12.9375 67.421875 
Q 19.578125 74.21875 30.609375 74.21875 
Q 43.265625 74.21875 49.921875 64.515625 
Q 56.59375 54.828125 56.59375 36.375 
Q 56.59375 19.140625 48.40625 8.859375 
Q 40.234375 -1.421875 26.421875 -1.421875 
Q 22.703125 -1.421875 18.890625 -0.6875 
Q 15.09375 0.046875 10.984375 1.515625 
z
M 30.609375 32.421875 
Q 37.25 32.421875 41.125 36.953125 
Q 45.015625 41.5 45.015625 49.421875 
Q 45.015625 57.28125 41.125 61.84375 
Q 37.25 66.40625 30.609375 66.40625 
Q 23.96875 66.40625 20.09375 61.84375 
Q 16.21875 57.28125 16.21875 49.421875 
Q 16.21875 41.5 20.09375 36.953125 
Q 23.96875 32.421875 30.609375 32.421875 
z
" id="DejaVuSans-39"/>
     </defs>
     <g transform="translate(357.490625 80.514688)scale(0.1 -0.1)">
      <use xlink:href="#DejaVuSans-39"/>
      <use x="63.623047" xlink:href="#DejaVuSans-20"/>
      <use x="95.410156" xlink:href="#DejaVuSans-48"/>
      <use x="170.605469" xlink:href="#DejaVuSans-7a"/>
     </g>
    </g>
   </g>
  </g>
 </g>
 <defs>
  <clipPath id="p87f8ba09ca">
   <rect height="217.44" width="334.8" x="54" y="34.56"/>
  </clipPath>
 </defs>
</svg>
